<svg xmlns="http://www.w3.org/2000/svg" width="777.333" height="186.469" viewBox="0 0 777.333 186.469">
  <path id="green_tear2" d="M1198.78,505.758c-.47-.2-.148-1.746-.189-2.659a.205.205,0,0,0-.054-.055h.04v.055c6.843-3.2,4.251-6.375-.054-9.534.054-1.247.094-2.486.121-3.738,1.728-.091,3.388-.319,4.157-1.933,3.077-3.483,6.479-6.924,2.24-11.481-2.767-2.06-4.481-5.287-8.657-5.795-.7-.607-1.408-1.225-2.1-1.828,2.91-5.31-2.51-16.741-8.985-18.916-2.636-2.77,6.117-9.465-4.4-9.52-1.44-.041-2.879-.082-4.319-.11-.015-.59-.015-1.179,0-1.772q4.389-.948,8.784-1.9,4.389.872,8.778,1.737c2.03-2.944,5.4-5.434,4.478-9.424-.745.6-1.505,1.211-2.249,1.815q-2.2-1.858-4.412-3.711c-.912-1.613-2.616-1.787-4.4-1.8-.047-.7-.111-1.4-.158-2.1-.29-.069-.586-.123-.88-.187-4.092-1.156-8.21-6.147-12.205.307-.713,0-1.429-.014-2.141-.028-1.966-4.356-4.613-7.97-11.04-7.326h-4.572q-7.718-2.857-15.411-5.74c-10.892-1.489-21.779-2.847-32.857-1.856l-19.807.083c-8.4-.124-16.824.082-25.176-.431-8.488-.525-17.281,2.085-25.432-1.813H978.447a8.567,8.567,0,0,1-.042,1.772c.042.119.09.242.138.347a.97.97,0,0,0-.127-.022l-.027-.339q-8.833.219-17.661.443-20.792.063-41.588.11c-1.767-.242-3.5-.352-4.539,1.289q-9.894.219-19.8.443-9.823.019-19.656.054c.016.014.032.014.063.028-.016-.014-.031-.014-.063-.028-3.11-.054-6.489-1.279-8.983,1.462-5.109.138-10.239.27-15.347.421q-8.811,0-17.6-.014c-7.387.242-15.026-2.084-22.085,1.586-2.884.091-5.779.173-8.662.269q-18.776-.911-37.528-1.827H749.7c-1.8-.179-3.565-.284-4.555,1.448q-39.612.363-79.231.712c-1.814-.415-3.285-.063-4.26,1.4q-10.985.144-21.965.255c-3.158-.146-6.522-1.142-9.047,1.531q-9.87.165-19.745.324c-8.895.256-17.983-2.084-26.615,1.545q-10.92.184-21.822.379c-4.37-.028-8.72-.069-13.091-.1-3.8.082-7.866-1.4-11.182,1.453-9.11.283-18.711-.58-24.384,7.756-3.543.137-7.091.269-10.623.4-4.461.566-9.063.727-12.764,3.4-.217.645-.417,1.288-.633,1.919-2.141,0-4.276-.013-6.416-.013-3.127-3.56-5.885.914-8.873.324-3.332,2.189-8.3.415-11.262,3.483-6.859,1.046-9.775,6.814-15.274,9.506-5.283-.877-6.97,2.5-8.888,5.6-7.234.7-1.814,7.705-6.474,9.679v13.308c.711,0,1.439.027,2.15.069,1.023,1.508,2.7,1.777,4.524,1.787,2.741,1.549,3.189,6.778,8.626,4.021l.174-.242c.047,0,.073.028.12.028-.089.068-.2.146-.294.214,5.762,6.883.094,13.848.236,20.786l-.142-.055c-1.333-.645-2.678-1.275-4.013-1.923-.822,3.026-.279,5.378,3.933,5.9a7.8,7.8,0,0,1-.105,1.571q-3.187.2-6.353.4c-3.342-2.216-1.408,1.2-2.293,1.6-3.791-1.357-.464-5.74-4.381-7.929.327,13.953-.9,27.224,2.373,40.3.026,3.871.042,7.756.073,11.627a25.02,25.02,0,0,0,3.332,11.818,2.781,2.781,0,0,0,.822,1.371c1.456,6.211,7.635,7.54,13.181,9.52a16.691,16.691,0,0,1,.063,1.786h19.792c2.573-3.711,8.441-.173,11.061-3.766a14.473,14.473,0,0,1,2.12.1c.759.5,1.533,1,2.293,1.5,2.946-.663,5.9-1.307,8.847-1.965,2.509.59,4.445-.617,6.473-1.532,11.151,1.906,20.583-3.321,30.749-5.51a30.3,30.3,0,0,0,15.474-2.236c6.721.2,13.443.38,19.854-1.919.713.063,1.429.132,2.141.2,6.707,3.939,13.814,6.114,21.965,3.747,3.295,9.885,11.431,4.076,17.767,4.09,26.825,1.668,53.233-3.337,79.937-3.872,6.242-.123,13.228,1.627,19.18-1.964,10.672,4.057,20.552-.119,30.622-2.2,3.374,1.572,7,.791,10.549.832q42.374.486,84.693-1.829c18.87-1.024,37.733.055,56.709-1.654,24.643-2.216,49.585-2.057,74.38-3.052,3.844-.146,8.167,1.321,11.4-1.829,15.579-.132,31.332.887,46.728-.672a531.962,531.962,0,0,1,76.04-2.527c17.114.727,34.386.768,51.379-2.313a15.233,15.233,0,0,0,1.95-.159c8.8,2.34,17.615-.388,26.424.054,2.2,2.39,4.434,2.313,6.665.028,10.955,2.7,12.832,1.33,13.129-9.534-.594-4.529-5.6-5.31-8.78-7.65-1.765-.982-2.91-3.079-1.56-3.911,3.855-2.381,4.229-3.56-.733-4.813-1.624-.4-2.926-1.745-4.365-2.659,2.573-3.634,8.441-.22,11.025-3.834C1202.2,514.163,1209.011,510.128,1198.78,505.758Zm0,0" transform="matrix(1, 0.017, -0.017, 1, -422.426, -413.59)" fill="#abd462"/>
</svg>
