<svg id="logo_footer" xmlns="http://www.w3.org/2000/svg" xmlns:xlink="http://www.w3.org/1999/xlink" width="246.735" height="104.67" viewBox="0 0 246.735 104.67">
  <defs>
    <clipPath id="clip-path">
      <rect id="Rectangle_3" data-name="Rectangle 3" width="246.735" height="104.671" fill="#00205a"/>
    </clipPath>
  </defs>
  <g id="Group_1" data-name="Group 1" clip-path="url(#clip-path)">
    <path id="Path_1" data-name="Path 1" d="M117.545,89.885c-.651,1.266-1.181,2.413-1.811,3.5-1.8,3.114-3.983,5.889-7.439,7.312-6.846,2.82-15.311-2.007-16.859-9.526-.643-3.121-.021-6.15.5-9.177,1.47-8.531,4.684-22.508,4.684-27.6,0-1.6.876-2.444,2.415-2.168a11.446,11.446,0,0,1,8.921,6.608,7.7,7.7,0,0,1,.28,4.247c-.913,5.267-4.728,20.955-4.41,28.255.09,2.067,2.108,2.961,3.884,1.912a10.6,10.6,0,0,0,3.376-3.064c6.758-10.049,9.947-27.564,10.675-36.329a1.681,1.681,0,0,1,1.956-1.738c5.209.006,10.268,5.941,9.328,11.017-1.312,7.085-4.422,18.466-4.422,27.066,0,2.857,2.33,4.19,4.941,3a11.174,11.174,0,0,0,4.665-4.641,47.8,47.8,0,0,0,5.752-15.043,52.337,52.337,0,0,0,1.3-17.286,15.232,15.232,0,0,0-.418-2.545,1.358,1.358,0,0,1,1.263-1.938,8.407,8.407,0,0,1,2.825.165c6.172,1.369,9.587,6.083,8.665,12.3-1.906,12.848-7.374,23.928-16.984,32.807a15.463,15.463,0,0,1-9.446,4.465c-6.009.42-10.623-2.7-12.676-8.462-.346-.97-.608-1.97-.96-3.128" transform="translate(-34.975 -19.831)" fill="#00205a"/>
    <path id="Path_2" data-name="Path 2" d="M22.762,110.169a27.865,27.865,0,0,1-15.084-4.53C2.605,102.237-.6,97.683.095,91.271c.481-4.42,3-7.492,7.1-9.243a4.8,4.8,0,0,1,1.051-.291c1.845-.326,2.525.34,2.721,2.208a46.785,46.785,0,0,0,1.193,8.165c2.252,7.767,8.847,11.907,16.794,10.846,7.859-1.05,11.728-9.26,7.31-15.883a29.811,29.811,0,0,0-5.317-5.6c-3.52-3.079-7.286-5.878-10.8-8.968a21,21,0,0,1-6.923-10.555c-2.03-8,1.452-15.729,8.918-19.739,6.011-3.228,12.451-3.769,19.087-2.677a23.015,23.015,0,0,1,11.382,4.881,10.66,10.66,0,0,1,3.636,5.318c1.147,4.157-1.243,8.163-5.831,9.875a11.24,11.24,0,0,1-1.433.439c-1.951.444-2.8-.2-3.022-2.169a15.27,15.27,0,0,0-4.329-9.6,10.987,10.987,0,0,0-13.128-1.411c-3.983,2.464-5.207,7.087-3.014,11.428,1.514,3,3.97,5.171,6.485,7.272,3.661,3.059,7.439,5.982,11.029,9.121a20,20,0,0,1,6.718,10.2c1.936,7.8-1.556,16.111-8.716,20.852-4.99,3.3-10.573,4.457-18.246,4.437" transform="translate(0 -14.97)" fill="#00205a"/>
    <path id="Path_3" data-name="Path 3" d="M221.7,49.585a12.859,12.859,0,0,1,3.764-2.829c2.592-1.239,4.942.272,4.769,3.13a14.351,14.351,0,0,1-1.406,5.572c-2.723,5.3-8.774,11.084-14.394,11.19a.442.442,0,0,1-.451-.449c.076-5.212,4.409-13.05,7.717-16.615m42.581,1.076a20.371,20.371,0,0,1,3.908-3.534,3.506,3.506,0,0,1,4.221-.226c1.4.972,1.568,2.479,1.4,4.023a15,15,0,0,1-3.377,7.613c-4.976,6.417-10.263,8.045-12.538,8.147a.442.442,0,0,1-.46-.451c.09-6.16,4.19-12.346,6.845-15.574m59.171,34.555A1.436,1.436,0,0,0,322.11,84.2a2.269,2.269,0,0,0-1.6,1.017c-2.272,2.963-8.131,8.621-14.311,8.621-6.089,0-5.272-5.526-5.089-6.613,1.485-8.8,3.117-18.056,4.66-26.827.089-.51.1-.568.65-.568,1.864,0,4.309-.166,6.164-.346,2.59-.252,4.876-1.179,6.305-3.509.923-1.5.37-2.459-1.382-2.47-2.321-.015-4.641.015-6.962.022-1,0-2.92,0-4.106,0a.192.192,0,0,1-.188-.226c.142-.8.28-1.45.357-2.106,1-8.555,0-17.371-2.635-21.915-2.661-4.588-5.143-6.237-8.906-6.179-1.216.018-2.67.79-1.986,1.77,5.621,8.045,3.44,19.5,2.147,25.462-.174.8-.555,2.392-.685,2.858-.142.508-.122.52-.731.52-.336,0-3.648.014-4.1.016-1.037.006-2.8-.325-2.8.957,0,1.877,2.03,5.535,5.541,5.535,1.037,0,.875.179.8.6-.694,3.819-1.436,7.628-2.158,11.442a1.263,1.263,0,0,1-.423.732c-3.21,2.711-7.763,5.7-15.229,8.98a17.053,17.053,0,0,1-9.945.935c-4.907-.874-8.952-6.384-8.369-11.235.051-.428.112-.58.9-.706a45.593,45.593,0,0,0,13.617-4.142c4.151-2.1,7.887-4.734,10.246-8.894,3.67-6.472,1.1-13.476-5.934-15.867a19.322,19.322,0,0,0-17.839,2.5c-9.634,6.634-14.238,16.087-13.984,27.688.038,1.736.342,1.614-1.052,2.74-5.028,4.057-10.012,7.432-16.565,8.107-8.144.839-12.984-4.334-12.821-11.7a.374.374,0,0,1,.255-.343,1.714,1.714,0,0,1,.374-.093,39.213,39.213,0,0,0,16.145-5.429,20.2,20.2,0,0,0,8.207-8.148c3.05-6.076.884-12.355-5.269-14.95a19.106,19.106,0,0,0-16,.567c-7.061,3.277-11.521,9.016-14.4,16.037-2.406,5.876-3.44,11.964-1.577,18.218,2.895,9.712,12.133,14.867,22.9,13.43,7.953-1.061,14.56-4.9,20.229-10.454.255-.25.523-.486.818-.751a.231.231,0,0,1,.361.067l.243.481c3.524,7,9.412,10.353,17.061,10.819,7.21.439,13.286-2.508,19.43-6.018a42.019,42.019,0,0,0,6.7-4.6.231.231,0,0,1,.379.216q-.326,1.751-.65,3.5c-.5,2.748-3.064,18.687,13.778,18.687,10.149,0,16.158-6.946,20.363-14.027a4.208,4.208,0,0,0,.4-3.38" transform="translate(-76.915 -8.862)" fill="#00205a"/>
    <path id="Path_4" data-name="Path 4" d="M377.366,60.038a3.417,3.417,0,0,0-1.53,2.379,3.424,3.424,0,0,0,4.329-2.795,3.418,3.418,0,0,0-2.8.415" transform="translate(-144.192 -22.824)" fill="#00205a"/>
    <path id="Path_5" data-name="Path 5" d="M378.118,52.076a4.655,4.655,0,0,0-2.085,3.242,4.664,4.664,0,0,0,5.9-3.808,4.66,4.66,0,0,0-3.813.566" transform="translate(-144.267 -19.693)" fill="#00205a"/>
    <path id="Path_6" data-name="Path 6" d="M378.024,42.557a5.965,5.965,0,0,0-2.272,4.385,5.976,5.976,0,0,0,7.068-5.562,5.965,5.965,0,0,0-4.8,1.178" transform="translate(-144.16 -15.836)" fill="#00205a"/>
    <path id="Path_7" data-name="Path 7" d="M375.656,29.717a7.867,7.867,0,0,0-1.291,6.382,7.88,7.88,0,0,0,6.944-9.613,7.863,7.863,0,0,0-5.653,3.231" transform="translate(-143.551 -10.162)" fill="#00205a"/>
    <path id="Path_8" data-name="Path 8" d="M368.912,16.3a9.466,9.466,0,0,0,1.446,7.7,9.483,9.483,0,0,0,3.4-13.862,9.465,9.465,0,0,0-4.844,6.16" transform="translate(-141.43 -3.889)" fill="#00205a"/>
    <path id="Path_9" data-name="Path 9" d="M358.955,9.712a8.8,8.8,0,0,0,3.324,6.051,8.8,8.8,0,0,0,1.941-6.624,8.8,8.8,0,0,0-3.324-6.05,8.8,8.8,0,0,0-1.941,6.624" transform="translate(-137.694 -1.185)" fill="#00205a"/>
    <path id="Path_10" data-name="Path 10" d="M345.059,7.8a9.427,9.427,0,0,0,6.131,4.83A9.445,9.445,0,0,0,344.656,0a9.429,9.429,0,0,0,.4,7.8" transform="translate(-131.978)" fill="#00205a"/>
    <path id="Path_11" data-name="Path 11" d="M335.325,18.523a7.975,7.975,0,0,0,6.556.776,7.989,7.989,0,0,0-10.29-6.22,7.973,7.973,0,0,0,3.734,5.444" transform="translate(-127.217 -4.873)" fill="#00205a"/>
    <path id="Path_12" data-name="Path 12" d="M337.91,31.253a7.593,7.593,0,0,0,6.1-1.508,7.61,7.61,0,0,0-11.26-2.093,7.594,7.594,0,0,0,5.155,3.6" transform="translate(-127.663 -9.981)" fill="#00205a"/>
    <path id="Path_13" data-name="Path 13" d="M342.406,41.909a6.262,6.262,0,0,0,5.3-1.582,6.1,6.1,0,0,0-9.7-1.771,6.263,6.263,0,0,0,4.4,3.352" transform="translate(-129.678 -14.148)" fill="#00205a"/>
    <path id="Path_14" data-name="Path 14" d="M345.393,51.163a4.553,4.553,0,0,0,4.033-1.033,4.352,4.352,0,0,0-7.089-1.794,4.554,4.554,0,0,0,3.056,2.827" transform="translate(-131.34 -18.1)" fill="#00205a"/>
    <path id="Path_15" data-name="Path 15" d="M346.241,58.715a3.587,3.587,0,0,0,3.225-.585A3.426,3.426,0,0,0,344,56.323a3.585,3.585,0,0,0,2.24,2.391" transform="translate(-131.978 -21.322)" fill="#00205a"/>
    <path id="Path_16" data-name="Path 16" d="M346.494,65.043a2.858,2.858,0,0,0,2.55-.569,2.732,2.732,0,0,0-4.413-1.265,2.857,2.857,0,0,0,1.863,1.834" transform="translate(-132.22 -23.994)" fill="#00205a"/>
    <path id="Path_17" data-name="Path 17" d="M96.333,152.774l-2.057-6.055-2.033,6.055Zm.982,2.828h-6.03L90,159.459H86.539l6.007-16.106h3.506l5.984,16.106H98.624Z" transform="translate(-33.201 -54.998)" fill="#00205a"/>
    <path id="Path_18" data-name="Path 18" d="M126.674,156.583c2.687,0,4.067-2.385,4.067-5.142s-1.379-5.213-4.067-5.213h-3.063v10.355Zm-6.312-13.23h6.312c4.628,0,7.315,3.506,7.315,8.088,0,4.558-2.687,8.017-7.315,8.017h-6.312Z" transform="translate(-46.178 -54.998)" fill="#00205a"/>
    <path id="Path_19" data-name="Path 19" d="M159.36,156.583c2.687,0,4.067-2.385,4.067-5.142s-1.379-5.213-4.067-5.213H156.3v10.355Zm-6.312-13.23h6.312c4.628,0,7.315,3.506,7.315,8.088,0,4.558-2.687,8.017-7.315,8.017h-6.312Z" transform="translate(-58.718 -54.998)" fill="#00205a"/>
    <rect id="Rectangle_1" data-name="Rectangle 1" width="3.249" height="16.106" transform="translate(114.475 88.355)" fill="#00205a"/>
    <path id="Path_20" data-name="Path 20" d="M212.766,146.228h-4.441v13.23h-3.249v-13.23h-4.441v-2.875h12.132Z" transform="translate(-76.975 -54.998)" fill="#00205a"/>
    <rect id="Rectangle_2" data-name="Rectangle 2" width="3.249" height="16.106" transform="translate(141.725 88.355)" fill="#00205a"/>
    <path id="Path_21" data-name="Path 21" d="M258.14,151.287a4.94,4.94,0,1,0-4.932,5.212,4.971,4.971,0,0,0,4.932-5.212m-13.113,0a8.193,8.193,0,1,1,8.181,8.251,8.181,8.181,0,0,1-8.181-8.251" transform="translate(-94.006 -54.867)" fill="#00205a"/>
    <path id="Path_22" data-name="Path 22" d="M293.217,143.353v16.106H290.3l-5.844-10.1v10.1H281.2V143.353h3.015l5.75,9.981v-9.981Z" transform="translate(-107.885 -54.998)" fill="#00205a"/>
    <path id="Path_23" data-name="Path 23" d="M311.272,154.583h3.249a2.422,2.422,0,0,0,2.642,2.127c1.45,0,2.407-.748,2.407-1.893,0-.888-.654-1.519-2.033-1.94l-1.964-.561c-3.53-.935-4.16-3.062-4.16-4.512,0-2.875,2.477-4.791,5.563-4.791,3.039,0,5.376,1.847,5.376,4.909H319.1a2.23,2.23,0,0,0-4.418-.187c0,.4.117,1.239,1.8,1.706l1.8.515c2.431.677,4.558,1.963,4.558,4.7,0,3.2-2.734,4.885-5.773,4.885-3.437,0-5.8-2.1-5.8-4.955" transform="translate(-119.421 -54.867)" fill="#00205a"/>
  </g>
</svg>
