<svg id="logo" xmlns="http://www.w3.org/2000/svg" xmlns:xlink="http://www.w3.org/1999/xlink" width="235" height="99.692" viewBox="0 0 235 99.692">
  <defs>
    <clipPath id="clip-path">
      <rect id="Rectangle_3" data-name="Rectangle 3" width="235" height="99.692" fill="none"/>
    </clipPath>
  </defs>
  <g id="Group_1" data-name="Group 1" clip-path="url(#clip-path)">
    <path id="Path_1" data-name="Path 1" d="M116.29,88.069c-.62,1.206-1.125,2.3-1.725,3.335-1.718,2.966-3.793,5.609-7.085,6.965-6.521,2.686-14.583-1.912-16.058-9.073-.612-2.972-.02-5.857.476-8.74,1.4-8.125,4.461-21.437,4.461-26.291,0-1.52.835-2.328,2.3-2.065a10.9,10.9,0,0,1,8.5,6.294,7.331,7.331,0,0,1,.267,4.045c-.869,5.016-4.5,19.958-4.2,26.911a2.312,2.312,0,0,0,3.7,1.821,10.1,10.1,0,0,0,3.216-2.919c6.436-9.572,9.474-26.253,10.167-34.6a1.6,1.6,0,0,1,1.863-1.655c4.961.005,9.78,5.658,8.884,10.493-1.25,6.748-4.212,17.587-4.212,25.779,0,2.721,2.219,3.991,4.706,2.856a10.643,10.643,0,0,0,4.443-4.42,45.528,45.528,0,0,0,5.478-14.328A49.848,49.848,0,0,0,142.7,56.011a14.508,14.508,0,0,0-.4-2.424,1.293,1.293,0,0,1,1.2-1.846,8.008,8.008,0,0,1,2.691.157c5.879,1.3,9.131,5.794,8.253,11.711-1.816,12.237-7.023,22.79-16.176,31.247a14.728,14.728,0,0,1-9,4.253c-5.724.4-10.118-2.575-12.073-8.06-.33-.923-.579-1.876-.915-2.979" transform="translate(-37.647 -21.346)" fill="#ff8f00"/>
    <path id="Path_2" data-name="Path 2" d="M21.679,106.786a26.54,26.54,0,0,1-14.367-4.314C2.481,99.23-.574,94.893.09,88.785a10.392,10.392,0,0,1,6.761-8.8,4.575,4.575,0,0,1,1-.277c1.758-.311,2.405.323,2.591,2.1a44.56,44.56,0,0,0,1.136,7.777c2.144,7.4,8.426,11.341,15.995,10.33,7.485-1,11.171-8.82,6.963-15.128a28.394,28.394,0,0,0-5.064-5.336c-3.353-2.932-6.939-5.6-10.282-8.541A20,20,0,0,1,12.6,60.857c-1.933-7.616,1.383-14.981,8.494-18.8,5.725-3.075,11.859-3.59,18.179-2.549a21.921,21.921,0,0,1,10.841,4.649,10.153,10.153,0,0,1,3.463,5.065C54.667,53.181,52.39,57,48.02,58.627a10.7,10.7,0,0,1-1.365.419c-1.858.423-2.667-.194-2.878-2.066a14.544,14.544,0,0,0-4.123-9.147,10.464,10.464,0,0,0-12.5-1.344c-3.793,2.346-4.959,6.75-2.871,10.884,1.442,2.854,3.781,4.925,6.176,6.926,3.487,2.913,7.085,5.7,10.5,8.687a19.052,19.052,0,0,1,6.4,9.714c1.844,7.426-1.482,15.344-8.3,19.86-4.753,3.146-10.07,4.245-17.378,4.226" transform="translate(0 -16.113)" fill="#ff8f00"/>
    <path id="Path_3" data-name="Path 3" d="M220.687,48.325a12.248,12.248,0,0,1,3.585-2.694c2.469-1.181,4.707.259,4.542,2.982a13.668,13.668,0,0,1-1.339,5.307c-2.594,5.044-8.357,10.557-13.709,10.658a.421.421,0,0,1-.429-.428c.073-4.965,4.2-12.43,7.35-15.825m40.556,1.025a19.4,19.4,0,0,1,3.722-3.366,3.339,3.339,0,0,1,4.021-.215c1.336.926,1.493,2.361,1.335,3.832a14.29,14.29,0,0,1-3.216,7.251c-4.74,6.112-9.775,7.663-11.941,7.76a.421.421,0,0,1-.439-.429c.086-5.867,3.991-11.759,6.519-14.833M317.6,82.262a1.368,1.368,0,0,0-1.274-.969,2.161,2.161,0,0,0-1.519.969c-2.164,2.822-7.744,8.211-13.63,8.211-5.8,0-5.021-5.263-4.847-6.3,1.414-8.385,2.969-17.2,4.439-25.551.085-.485.1-.541.619-.541,1.776,0,4.1-.158,5.871-.329a7.37,7.37,0,0,0,6.005-3.343c.879-1.433.353-2.342-1.316-2.353-2.21-.014-4.42.014-6.631.021-.956,0-2.781,0-3.911,0a.183.183,0,0,1-.179-.215c.136-.763.267-1.381.34-2.006.952-8.149,0-16.545-2.51-20.873-2.535-4.37-4.9-5.94-8.483-5.886-1.158.018-2.543.753-1.891,1.685,5.354,7.663,3.276,18.569,2.045,24.251-.166.762-.528,2.278-.653,2.722-.136.484-.116.5-.7.5-.32,0-3.475.014-3.91.015-.987.005-2.665-.31-2.665.912,0,1.788,1.934,5.272,5.277,5.272.987,0,.833.171.761.567-.661,3.637-1.368,7.266-2.055,10.9a1.2,1.2,0,0,1-.4.7c-3.057,2.582-7.394,5.425-14.5,8.553a16.243,16.243,0,0,1-9.472.891c-4.673-.832-8.527-6.08-7.971-10.7.049-.407.107-.552.86-.673a43.424,43.424,0,0,0,12.97-3.945c3.954-2,7.512-4.508,9.759-8.471,3.5-6.164,1.05-12.835-5.652-15.113a18.4,18.4,0,0,0-16.99,2.38c-9.176,6.319-13.56,15.321-13.319,26.371.036,1.654.326,1.537-1,2.609-4.789,3.864-9.536,7.079-15.777,7.722-7.757.8-12.366-4.127-12.211-11.144a.356.356,0,0,1,.242-.327,1.633,1.633,0,0,1,.356-.089,37.348,37.348,0,0,0,15.377-5.171,19.236,19.236,0,0,0,7.816-7.761c2.905-5.787.842-11.768-5.018-14.239a18.2,18.2,0,0,0-15.242.54c-6.725,3.121-10.973,8.587-13.712,15.275-2.292,5.6-3.277,11.4-1.5,17.351,2.757,9.25,11.556,14.16,21.815,12.791,7.575-1.011,13.867-4.666,19.267-9.957.243-.238.5-.463.779-.716a.22.22,0,0,1,.343.064l.231.458c3.356,6.671,8.965,9.861,16.25,10.3,6.867.418,12.654-2.389,18.506-5.732a40.022,40.022,0,0,0,6.38-4.383.22.22,0,0,1,.361.205q-.311,1.668-.619,3.336c-.48,2.618-2.918,17.8,13.123,17.8,9.666,0,15.39-6.616,19.394-13.36a4.007,4.007,0,0,0,.377-3.219" transform="translate(-82.792 -9.539)" fill="#ff8f00"/>
    <path id="Path_4" data-name="Path 4" d="M377.294,60.012a3.255,3.255,0,0,0-1.458,2.266,3.261,3.261,0,0,0,4.123-2.662,3.255,3.255,0,0,0-2.665.4" transform="translate(-155.209 -24.568)" fill="#ff8f00"/>
    <path id="Path_5" data-name="Path 5" d="M378.019,52.04a4.433,4.433,0,0,0-1.986,3.088A4.442,4.442,0,0,0,381.65,51.5a4.438,4.438,0,0,0-3.631.539" transform="translate(-155.29 -21.198)" fill="#ff8f00"/>
    <path id="Path_6" data-name="Path 6" d="M377.916,42.5a5.681,5.681,0,0,0-2.164,4.176,5.692,5.692,0,0,0,6.732-5.3,5.681,5.681,0,0,0-4.568,1.122" transform="translate(-155.174 -17.046)" fill="#ff8f00"/>
    <path id="Path_7" data-name="Path 7" d="M375.585,29.564a7.493,7.493,0,0,0-1.23,6.078,7.505,7.505,0,0,0,6.613-9.156,7.489,7.489,0,0,0-5.384,3.078" transform="translate(-154.519 -10.938)" fill="#ff8f00"/>
    <path id="Path_8" data-name="Path 8" d="M368.9,16a9.015,9.015,0,0,0,1.377,7.336,9.032,9.032,0,0,0,3.236-13.2A9.015,9.015,0,0,0,368.9,16" transform="translate(-152.236 -4.186)" fill="#ff8f00"/>
    <path id="Path_9" data-name="Path 9" d="M358.953,9.4a8.385,8.385,0,0,0,3.166,5.763,8.385,8.385,0,0,0,1.849-6.309A8.381,8.381,0,0,0,360.8,3.088,8.384,8.384,0,0,0,358.953,9.4" transform="translate(-148.215 -1.275)" fill="#ff8f00"/>
    <path id="Path_10" data-name="Path 10" d="M345.009,7.425a8.978,8.978,0,0,0,5.84,4.6A9,9,0,0,0,344.625,0a8.98,8.98,0,0,0,.384,7.425" transform="translate(-142.062)" fill="#ff8f00"/>
    <path id="Path_11" data-name="Path 11" d="M335.147,18.247a7.6,7.6,0,0,0,6.244.739,7.609,7.609,0,0,0-9.8-5.924,7.594,7.594,0,0,0,3.556,5.185" transform="translate(-136.937 -5.246)" fill="#ff8f00"/>
    <path id="Path_12" data-name="Path 12" d="M337.665,31a7.232,7.232,0,0,0,5.815-1.436,7.248,7.248,0,0,0-10.724-1.994,7.233,7.233,0,0,0,4.91,3.43" transform="translate(-137.418 -10.743)" fill="#ff8f00"/>
    <path id="Path_13" data-name="Path 13" d="M342.2,41.669a5.964,5.964,0,0,0,5.048-1.506,5.809,5.809,0,0,0-9.238-1.687,5.965,5.965,0,0,0,4.19,3.193" transform="translate(-139.587 -15.229)" fill="#ff8f00"/>
    <path id="Path_14" data-name="Path 14" d="M345.248,50.973a4.336,4.336,0,0,0,3.841-.984,4.145,4.145,0,0,0-6.751-1.709,4.338,4.338,0,0,0,2.911,2.693" transform="translate(-141.375 -19.483)" fill="#ff8f00"/>
    <path id="Path_15" data-name="Path 15" d="M346.135,58.565a3.416,3.416,0,0,0,3.071-.557A3.263,3.263,0,0,0,344,56.287a3.415,3.415,0,0,0,2.134,2.278" transform="translate(-142.062 -22.951)" fill="#ff8f00"/>
    <path id="Path_16" data-name="Path 16" d="M346.406,64.924a2.722,2.722,0,0,0,2.429-.542,2.6,2.6,0,0,0-4.2-1.2,2.721,2.721,0,0,0,1.774,1.747" transform="translate(-142.323 -25.827)" fill="#ff8f00"/>
    <path id="Path_17" data-name="Path 17" d="M95.867,152.326l-1.959-5.767-1.937,5.767Zm.935,2.693H91.059l-1.225,3.674H86.539l5.722-15.34H95.6l5.7,15.34h-3.25Z" transform="translate(-35.738 -59.2)" fill="#ff8f00"/>
    <path id="Path_18" data-name="Path 18" d="M126.374,155.954c2.559,0,3.873-2.271,3.873-4.9s-1.314-4.965-3.873-4.965h-2.918v9.863Zm-6.012-12.6h6.012c4.408,0,6.967,3.34,6.967,7.7,0,4.341-2.559,7.636-6.967,7.636h-6.012Z" transform="translate(-49.706 -59.2)" fill="#ff8f00"/>
    <path id="Path_19" data-name="Path 19" d="M159.06,155.954c2.559,0,3.873-2.271,3.873-4.9s-1.314-4.965-3.873-4.965h-2.918v9.863Zm-6.012-12.6h6.012c4.408,0,6.967,3.34,6.967,7.7,0,4.341-2.559,7.636-6.967,7.636h-6.012Z" transform="translate(-63.204 -59.2)" fill="#ff8f00"/>
    <rect id="Rectangle_1" data-name="Rectangle 1" width="3.094" height="15.34" transform="translate(109.031 84.153)" fill="#ff8f00"/>
    <path id="Path_20" data-name="Path 20" d="M212.189,146.091h-4.23v12.6h-3.094v-12.6h-4.23v-2.738h11.555Z" transform="translate(-82.856 -59.2)" fill="#ff8f00"/>
    <rect id="Rectangle_2" data-name="Rectangle 2" width="3.094" height="15.34" transform="translate(134.985 84.153)" fill="#ff8f00"/>
    <path id="Path_21" data-name="Path 21" d="M257.516,150.893a4.7,4.7,0,1,0-4.7,4.965,4.735,4.735,0,0,0,4.7-4.965m-12.489,0a7.8,7.8,0,1,1,7.792,7.859,7.792,7.792,0,0,1-7.792-7.859" transform="translate(-101.189 -59.06)" fill="#ff8f00"/>
    <path id="Path_22" data-name="Path 22" d="M292.645,143.353v15.34h-2.783l-5.566-9.618v9.618H281.2v-15.34h2.872l5.477,9.506v-9.506Z" transform="translate(-116.128 -59.2)" fill="#ff8f00"/>
    <path id="Path_23" data-name="Path 23" d="M311.272,154.032h3.094a2.307,2.307,0,0,0,2.516,2.026c1.381,0,2.293-.712,2.293-1.8,0-.846-.623-1.447-1.937-1.847l-1.87-.535c-3.362-.891-3.962-2.916-3.962-4.3,0-2.738,2.359-4.564,5.3-4.564,2.894,0,5.12,1.759,5.12,4.675H318.73a2.124,2.124,0,0,0-4.208-.178c0,.379.112,1.18,1.714,1.625l1.714.49c2.316.645,4.341,1.87,4.341,4.475,0,3.05-2.6,4.653-5.5,4.653-3.273,0-5.522-2-5.522-4.72" transform="translate(-128.546 -59.06)" fill="#ff8f00"/>
  </g>
</svg>
