<svg id="logo_large" xmlns="http://www.w3.org/2000/svg" xmlns:xlink="http://www.w3.org/1999/xlink" width="524.377" height="222.453" viewBox="0 0 524.377 222.453">
  <defs>
    <clipPath id="clip-path">
      <rect id="Rectangle_3" data-name="Rectangle 3" width="524.377" height="222.453" fill="none"/>
    </clipPath>
  </defs>
  <g id="Group_1" data-name="Group 1" clip-path="url(#clip-path)">
    <path id="Path_1" data-name="Path 1" d="M147.234,132.867c-1.383,2.691-2.51,5.128-3.85,7.442-3.833,6.619-8.465,12.516-15.809,15.541-14.55,5.994-32.54-4.266-35.831-20.246-1.366-6.632-.045-13.07,1.062-19.5,3.124-18.13,9.954-47.835,9.954-58.665,0-3.391,1.863-5.2,5.133-4.608,8.593,1.542,15.324,6.046,18.959,14.043,1.176,2.587,1.1,6.107.595,9.026-1.94,11.193-10.048,44.535-9.372,60.05.191,4.393,4.48,6.293,8.255,4.063a22.527,22.527,0,0,0,7.176-6.513c14.362-21.358,21.14-58.581,22.687-77.208.22-2.649,1.585-3.7,4.158-3.694,11.07.012,21.823,12.626,19.824,23.414-2.789,15.059-9.4,39.244-9.4,57.523,0,6.071,4.951,8.9,10.5,6.373,4.5-2.055,7.39-5.816,9.915-9.863,6.153-9.86,9.688-20.729,12.224-31.971,2.731-12.109,4.108-24.325,2.755-36.737a32.374,32.374,0,0,0-.889-5.41c-.73-2.548.529-3.846,2.684-4.12a17.868,17.868,0,0,1,6,.35c13.117,2.909,20.375,12.929,18.416,26.131-4.051,27.3-15.672,50.854-36.1,69.724-5.61,5.185-12.217,8.943-20.075,9.49-12.771.892-22.577-5.746-26.941-17.985-.736-2.06-1.292-4.186-2.041-6.648" transform="translate(28.25 16.018)" fill="#ff8f00"/>
    <path id="Path_2" data-name="Path 2" d="M48.374,190.233a59.221,59.221,0,0,1-32.058-9.626C5.537,173.375-1.281,163.7.2,150.068c1.022-9.393,6.371-15.922,15.086-19.643a10.21,10.21,0,0,1,2.233-.618c3.922-.693,5.367.722,5.782,4.693.606,5.817.921,11.788,2.535,17.353,4.785,16.507,18.8,25.306,35.691,23.05,16.7-2.231,24.926-19.68,15.537-33.756-3-4.49-7.189-8.31-11.3-11.907-7.481-6.543-15.484-12.492-22.944-19.059-6.9-6.075-12.4-13.318-14.713-22.432C23.8,70.757,31.2,54.321,47.062,45.8c12.775-6.861,26.461-8.01,40.565-5.689,8.9,1.464,17.178,4.488,24.19,10.374a22.656,22.656,0,0,1,7.728,11.3c2.438,8.834-2.642,17.348-12.393,20.987a23.887,23.887,0,0,1-3.046.934c-4.146.944-5.952-.432-6.422-4.61-.878-7.773-3.483-14.825-9.2-20.411a23.35,23.35,0,0,0-27.9-3c-8.465,5.236-11.066,15.061-6.405,24.287,3.217,6.367,8.437,10.989,13.781,15.454,7.781,6.5,15.81,12.714,23.441,19.384,6.7,5.857,12.076,12.815,14.277,21.675,4.114,16.57-3.306,34.239-18.523,44.315-10.6,7.021-22.47,9.472-38.778,9.43" transform="translate(0 12.092)" fill="#ff8f00"/>
    <path id="Path_3" data-name="Path 3" d="M245.571,79.39a27.329,27.329,0,0,1,8-6.012c5.509-2.634,10.5.579,10.136,6.653a30.5,30.5,0,0,1-2.988,11.843c-5.787,11.255-18.648,23.557-30.59,23.782a.94.94,0,0,1-.958-.955c.162-11.078,9.37-27.736,16.4-35.311m90.5,2.287a43.293,43.293,0,0,1,8.3-7.511c2.675-1.912,5.955-2.571,8.971-.479,2.981,2.066,3.332,5.268,2.979,8.551-.663,6.142-3.457,11.384-7.177,16.18-10.576,13.639-21.811,17.1-26.646,17.316a.939.939,0,0,1-.979-.958c.191-13.091,8.9-26.238,14.546-33.1M461.82,155.116c-.688-1.535-1.724-2.2-2.844-2.163a4.822,4.822,0,0,0-3.39,2.161c-4.83,6.3-17.28,18.322-30.414,18.322-12.94,0-11.2-11.743-10.816-14.054,3.156-18.709,6.625-38.375,9.9-57.014.19-1.083.215-1.208,1.381-1.208,3.962,0,9.159-.352,13.1-.735,5.5-.536,10.363-2.506,13.4-7.459,1.961-3.2.787-5.226-2.937-5.25-4.932-.031-9.864.031-14.8.047-2.133.008-6.2,0-8.726,0a.409.409,0,0,1-.4-.481c.3-1.7.6-3.081.758-4.476,2.125-18.183,0-36.918-5.6-46.576-5.656-9.751-10.93-13.255-18.928-13.133-2.584.039-5.674,1.679-4.22,3.761,11.946,17.1,7.31,41.435,4.564,54.114-.369,1.7-1.179,5.084-1.457,6.074-.3,1.079-.259,1.106-1.554,1.106-.714,0-7.753.03-8.724.034-2.2.012-5.946-.692-5.946,2.034,0,3.989,4.315,11.763,11.776,11.763,2.2,0,1.859.381,1.7,1.265-1.475,8.116-3.052,16.213-4.586,24.317a2.684,2.684,0,0,1-.9,1.555c-6.822,5.761-16.5,12.1-32.365,19.085-6.594,2.9-13.882,3.28-21.136,1.987-10.428-1.857-19.026-13.568-17.786-23.878.109-.909.238-1.233,1.919-1.5,10.144-1.616,19.828-4.19,28.941-8.8,8.822-4.465,16.761-10.06,21.776-18.9,7.8-13.754,2.342-28.641-12.612-33.722-13.428-4.564-26.424-2.6-37.912,5.312-20.475,14.1-30.259,34.188-29.719,58.844.08,3.69.727,3.431-2.236,5.822-10.686,8.623-21.278,15.8-35.2,17.23-17.309,1.783-27.594-9.21-27.248-24.866a.794.794,0,0,1,.541-.73,3.644,3.644,0,0,1,.8-.2,83.338,83.338,0,0,0,34.313-11.539c7.253-4.306,13.582-9.629,17.441-17.317,6.483-12.913,1.878-26.258-11.2-31.773-11.427-4.82-22.937-3.935-34.011,1.205-15.006,6.965-24.486,19.161-30.6,34.083-5.114,12.489-7.312,25.428-3.351,38.718,6.153,20.641,25.785,31.6,48.678,28.543,16.9-2.256,30.944-10.412,42.992-22.218.542-.531,1.112-1.032,1.738-1.6a.491.491,0,0,1,.766.143l.516,1.022c7.489,14.886,20,22,36.259,22.993,15.323.933,28.236-5.33,41.295-12.79a89.3,89.3,0,0,0,14.236-9.781.491.491,0,0,1,.806.458q-.694,3.721-1.381,7.443c-1.071,5.841-6.511,39.715,29.283,39.715,21.569,0,34.34-14.763,43.276-29.812,1.229-2.071,1.682-5.306.841-7.183" transform="translate(62.128 7.158)" fill="#ff8f00"/>
    <path id="Path_4" data-name="Path 4" d="M379.089,60.654a7.263,7.263,0,0,0-3.252,5.056,7.276,7.276,0,0,0,9.2-5.939,7.264,7.264,0,0,0-5.947.883" transform="translate(116.47 18.436)" fill="#ff8f00"/>
    <path id="Path_5" data-name="Path 5" d="M380.464,52.915a9.893,9.893,0,0,0-4.432,6.89,9.913,9.913,0,0,0,12.535-8.093,9.9,9.9,0,0,0-8.1,1.2" transform="translate(116.531 15.907)" fill="#ff8f00"/>
    <path id="Path_6" data-name="Path 6" d="M380.582,44a12.677,12.677,0,0,0-4.829,9.319,12.7,12.7,0,0,0,15.022-11.822A12.677,12.677,0,0,0,380.582,44" transform="translate(116.444 12.792)" fill="#ff8f00"/>
    <path id="Path_7" data-name="Path 7" d="M377.335,33.354a16.719,16.719,0,0,0-2.744,13.563,16.747,16.747,0,0,0,14.757-20.43,16.711,16.711,0,0,0-12.013,6.868" transform="translate(115.952 8.208)" fill="#ff8f00"/>
    <path id="Path_8" data-name="Path 8" d="M369.221,23.229A20.117,20.117,0,0,0,372.294,39.6a20.154,20.154,0,0,0,7.221-29.461,20.116,20.116,0,0,0-10.294,13.092" transform="translate(114.239 3.141)" fill="#ff8f00"/>
    <path id="Path_9" data-name="Path 9" d="M359.018,17.165a18.71,18.71,0,0,0,7.064,12.859,18.709,18.709,0,0,0,4.125-14.079,18.7,18.7,0,0,0-7.064-12.858,18.709,18.709,0,0,0-4.125,14.077" transform="translate(111.221 0.957)" fill="#ff8f00"/>
    <path id="Path_10" data-name="Path 10" d="M346.25,16.568a20.034,20.034,0,0,0,13.031,10.266A20.073,20.073,0,0,0,345.393,0a20.039,20.039,0,0,0,.857,16.568" transform="translate(106.604)" fill="#ff8f00"/>
    <path id="Path_11" data-name="Path 11" d="M339.526,25.074a16.95,16.95,0,0,0,13.933,1.649A16.98,16.98,0,0,0,331.591,13.5a16.944,16.944,0,0,0,7.935,11.57" transform="translate(102.758 3.936)" fill="#ff8f00"/>
    <path id="Path_12" data-name="Path 12" d="M343.711,37.148a16.138,16.138,0,0,0,12.974-3.205,16.174,16.174,0,0,0-23.93-4.448,16.139,16.139,0,0,0,10.956,7.654" transform="translate(103.119 8.062)" fill="#ff8f00"/>
    <path id="Path_13" data-name="Path 13" d="M347.357,47.569a13.309,13.309,0,0,0,11.264-3.361,12.961,12.961,0,0,0-20.614-3.763,13.311,13.311,0,0,0,9.35,7.125" transform="translate(104.747 11.428)" fill="#ff8f00"/>
    <path id="Path_14" data-name="Path 14" d="M348.832,55.648a9.676,9.676,0,0,0,8.571-2.2,9.25,9.25,0,0,0-15.065-3.813,9.68,9.68,0,0,0,6.495,6.008" transform="translate(106.088 14.62)" fill="#ff8f00"/>
    <path id="Path_15" data-name="Path 15" d="M348.763,62.248A7.623,7.623,0,0,0,355.616,61,7.281,7.281,0,0,0,344,57.165a7.619,7.619,0,0,0,4.761,5.082" transform="translate(106.604 17.222)" fill="#ff8f00"/>
    <path id="Path_16" data-name="Path 16" d="M348.59,67.86a6.074,6.074,0,0,0,5.42-1.21,5.806,5.806,0,0,0-9.379-2.688,6.073,6.073,0,0,0,3.959,3.9" transform="translate(106.8 19.381)" fill="#ff8f00"/>
    <path id="Path_17" data-name="Path 17" d="M107.353,163.375l-4.371-12.868-4.321,12.868Zm2.087,6.01H96.624l-2.734,8.2H86.539l12.768-34.229h7.451l12.718,34.229h-7.253Z" transform="translate(26.818 44.424)" fill="#ff8f00"/>
    <path id="Path_18" data-name="Path 18" d="M133.777,171.471c5.711,0,8.643-5.068,8.643-10.928s-2.932-11.079-8.643-11.079h-6.51v22.008Zm-13.415-28.118h13.415c9.836,0,15.547,7.452,15.547,17.19,0,9.687-5.711,17.039-15.547,17.039H120.362Z" transform="translate(37.3 44.424)" fill="#ff8f00"/>
    <path id="Path_19" data-name="Path 19" d="M166.463,171.471c5.711,0,8.643-5.068,8.643-10.928s-2.931-11.079-8.643-11.079h-6.51v22.008Zm-13.415-28.118h13.415c9.836,0,15.547,7.452,15.547,17.19,0,9.687-5.711,17.039-15.547,17.039H153.048Z" transform="translate(47.429 44.424)" fill="#ff8f00"/>
    <rect id="Rectangle_1" data-name="Rectangle 1" width="6.904" height="34.229" transform="translate(243.291 187.777)" fill="#ff8f00"/>
    <path id="Path_20" data-name="Path 20" d="M226.417,149.463h-9.439v28.118h-6.9V149.463h-9.439v-6.111h25.783Z" transform="translate(62.176 44.424)" fill="#ff8f00"/>
    <rect id="Rectangle_2" data-name="Rectangle 2" width="6.904" height="34.229" transform="translate(301.204 187.777)" fill="#ff8f00"/>
    <path id="Path_21" data-name="Path 21" d="M272.9,160.6c0-6.16-4.371-11.079-10.482-11.079-6.159,0-10.482,4.919-10.482,11.079s4.323,11.078,10.482,11.078c6.111,0,10.482-4.917,10.482-11.078m-27.868,0a17.412,17.412,0,1,1,17.386,17.536A17.387,17.387,0,0,1,245.027,160.6" transform="translate(75.933 44.319)" fill="#ff8f00"/>
    <path id="Path_22" data-name="Path 22" d="M306.736,143.353v34.229h-6.209l-12.42-21.461v21.461h-6.9V143.353h6.408l12.221,21.213V143.353Z" transform="translate(87.143 44.424)" fill="#ff8f00"/>
    <path id="Path_23" data-name="Path 23" d="M311.272,167.6h6.9c.05,2.484,2.435,4.52,5.614,4.52,3.081,0,5.116-1.589,5.116-4.024,0-1.888-1.39-3.229-4.321-4.122l-4.173-1.193c-7.5-1.987-8.842-6.508-8.842-9.588,0-6.111,5.264-10.183,11.823-10.183,6.458,0,11.425,3.924,11.425,10.432h-6.9c0-2.434-1.69-4.321-4.671-4.321-2.681,0-4.718,1.64-4.718,3.924,0,.845.249,2.633,3.825,3.626l3.825,1.094c5.168,1.44,9.687,4.172,9.687,9.985,0,6.8-5.811,10.382-12.268,10.382-7.3,0-12.321-4.471-12.321-10.532" transform="translate(96.462 44.319)" fill="#ff8f00"/>
  </g>
</svg>
